# xmcd CD database file
#
# Track frame offsets:
#	150
#	14702
#	30064
#	43648
#	57144
#	69367
#	83619
#	98591
#	113665
#	127754
#	141334
#	154235
#	166552
#	179901
#	192463
#	205946
#	219481
#	231393
#	244891
#	258787
#
# Disc length: 3625 seconds
#
# Revision: 1
# Processed by: cddbd v1.5.2PL0 Copyright (c) Steve Scherf et al.
# Submitted via: CDex 1.70beta2
#
DISCID=0b0e2714
DTITLE=Duke Ellington - The Ultimate Jazz Archive Set 02
DYEAR=1924
DGENRE=Jazz
TTITLE0=Choo Choo
TTITLE1=Rainy Nights
TTITLE2=I'm Gonna Hang Around My Sugar
TTITLE3=Trombone Blues
TTITLE4=Georgia Grind
TTITLE5=Parlour Social Stomp
TTITLE6=Wanna Go Back Again Blues
TTITLE7=If You Can't Hold The Man You Love
TTITLE8=Animal Crackers
TTITLE9=Li'l Farina
TTITLE10=East St. Louis Toodle-O
TTITLE11=Birmingham Breakdown
TTITLE12=Immigration Blues
TTITLE13=The Creeper
TTITLE14=New Orleans Low-Down
TTITLE15=Song Of The Cotton-Field
TTITLE16=Birmingham Breakdown (2)
TTITLE17=East St. Louis Toodle-O (2)
TTITLE18=East St. Louis Toodle-O (3)
TTITLE19=Hop Head
EXTD=YEAR: 1924
EXTT0=
EXTT1=
EXTT2=
EXTT3=
EXTT4=
EXTT5=
EXTT6=
EXTT7=
EXTT8=
EXTT9=
EXTT10=
EXTT11=
EXTT12=
EXTT13=
EXTT14=
EXTT15=
EXTT16=
EXTT17=
EXTT18=
EXTT19=
PLAYORDER=
